<svg width="600" height="600" viewBox="0 0 600 600" fill="none" xmlns="http://www.w3.org/2000/svg">
<circle cx="300" cy="300" r="300" fill="white"/>
<path d="M124.688 428C111.44 428 99.632 425.12 89.264 419.36C79.088 413.408 71.12 405.344 65.36 395.168C59.6 384.8 56.72 372.992 56.72 359.744C56.72 344.96 60.368 331.904 67.664 320.576L133.04 211.424C136.496 206.048 140.912 203.36 146.288 203.36C150.32 203.36 153.68 204.512 156.368 206.816C159.056 209.12 160.688 212 161.264 215.456C162.032 218.912 161.36 222.368 159.248 225.824L119.792 291.488C121.328 291.296 122.96 291.2 124.688 291.2C137.936 291.2 149.648 294.176 159.824 300.128C170 305.888 177.968 313.952 183.728 324.32C189.488 334.496 192.368 346.304 192.368 359.744C192.368 372.992 189.488 384.8 183.728 395.168C177.968 405.344 170 413.408 159.824 419.36C149.648 425.12 137.936 428 124.688 428ZM124.4 402.08C136.304 402.08 146 398.144 153.488 390.272C160.976 382.4 164.72 372.224 164.72 359.744C164.72 347.264 160.976 337.088 153.488 329.216C146 321.152 136.304 317.12 124.4 317.12C112.688 317.12 103.088 321.152 95.6 329.216C88.112 337.088 84.368 347.264 84.368 359.744C84.368 372.224 88.112 382.4 95.6 390.272C103.088 398.144 112.688 402.08 124.4 402.08ZM295.2 428C280.8 428 268.032 425.024 256.896 419.072C245.76 412.928 237.024 404.672 230.688 394.304C224.352 383.744 221.184 371.936 221.184 358.88C221.184 354.464 222.432 350.912 224.928 348.224C227.616 345.344 230.784 343.904 234.432 343.904C238.272 343.904 241.44 345.344 243.936 348.224C246.432 350.912 247.68 354.464 247.68 358.88C247.68 366.752 249.696 374.048 253.728 380.768C257.76 387.296 263.232 392.576 270.144 396.608C277.056 400.448 284.832 402.368 293.472 402.368C306.144 402.368 316.32 398.912 324 392C331.872 384.896 335.808 375.008 335.808 362.336C335.808 354.272 334.08 347.072 330.624 340.736C327.168 334.208 322.464 329.024 316.512 325.184C310.56 321.344 303.84 319.424 296.352 319.424C292.128 319.424 288.576 317.984 285.696 315.104C283.008 312.224 281.664 308.672 281.664 304.448C281.664 300.224 283.008 296.768 285.696 294.08C288.576 291.2 292.128 289.76 296.352 289.76C301.728 289.76 306.912 288.416 311.904 285.728C316.896 282.848 321.024 279.104 324.288 274.496C327.552 269.696 329.184 264.32 329.184 258.368C329.184 249.92 326.112 242.816 319.968 237.056C313.824 231.296 305.952 228.416 296.352 228.416C289.056 228.416 282.336 229.856 276.192 232.736C270.24 235.616 265.44 239.456 261.792 244.256C258.336 249.056 256.608 254.432 256.608 260.384C256.608 264.8 255.36 268.544 252.864 271.616C250.368 274.496 247.2 275.936 243.36 275.936C239.712 275.936 236.544 274.592 233.856 271.904C231.36 269.024 230.112 265.472 230.112 261.248C230.112 250.112 232.992 240.128 238.752 231.296C244.512 222.464 252.384 215.552 262.368 210.56C272.352 205.376 283.488 202.784 295.776 202.784C307.104 202.784 317.28 205.28 326.304 210.272C335.52 215.072 342.72 221.696 347.904 230.144C353.28 238.4 355.968 247.808 355.968 258.368C355.968 265.856 354.24 272.48 350.784 278.24C347.52 284 343.296 288.992 338.112 293.216C332.928 297.248 327.456 300.608 321.696 303.296C336.864 308.48 347.808 316.352 354.528 326.912C361.44 337.28 364.896 349.184 364.896 362.624C364.896 375.104 361.728 386.336 355.392 396.32C349.056 406.112 340.608 413.888 330.048 419.648C319.488 425.216 307.872 428 295.2 428ZM469.622 428C455.798 428 443.318 424.832 432.182 418.496C421.238 411.968 412.502 403.136 405.974 392C399.638 380.864 396.47 368.384 396.47 354.56C396.47 350.336 397.814 346.88 400.502 344.192C403.19 341.312 406.646 339.872 410.87 339.872C415.094 339.872 418.646 341.312 421.526 344.192C424.406 346.88 425.846 350.336 425.846 354.56C425.846 362.816 427.766 370.304 431.606 377.024C435.446 383.744 440.63 389.024 447.158 392.864C453.878 396.704 461.366 398.624 469.622 398.624C478.07 398.624 485.558 396.704 492.086 392.864C498.806 389.024 504.086 383.744 507.926 377.024C511.766 370.304 513.686 362.816 513.686 354.56C513.686 346.112 511.766 338.624 507.926 332.096C504.086 325.376 498.806 320.096 492.086 316.256C485.558 312.416 478.07 310.496 469.622 310.496H421.526C417.302 310.496 413.846 309.152 411.158 306.464C408.47 303.584 407.126 300.032 407.126 295.808V218.048C407.126 213.824 408.47 210.272 411.158 207.392C413.846 204.512 417.302 203.072 421.526 203.072H517.718C521.75 203.072 525.206 204.608 528.086 207.68C530.966 210.56 532.406 214.016 532.406 218.048C532.406 221.888 530.966 225.248 528.086 228.128C525.398 231.008 521.942 232.448 517.718 232.448H436.214V281.12H469.622C483.638 281.12 496.118 284.384 507.062 290.912C518.198 297.248 526.934 305.984 533.27 317.12C539.798 328.064 543.062 340.544 543.062 354.56C543.062 368.384 539.798 380.864 533.27 392C526.934 403.136 518.198 411.968 507.062 418.496C496.118 424.832 483.638 428 469.622 428Z" fill="#17A2B8"/>
</svg>
